<?xml version="1.0" standalone="no"?><!DOCTYPE svg PUBLIC "-//W3C//DTD SVG 1.1//EN" "http://www.w3.org/Graphics/SVG/1.1/DTD/svg11.dtd"><svg t="1490757163761" class="icon"  viewBox="0 0 1024 1024" version="1.1" xmlns="http://www.w3.org/2000/svg" p-id="1393" xmlns:xlink="http://www.w3.org/1999/xlink" width="200" height="200">
<defs><style type="text/css"></style></defs><path fill="#c7c7c7"  style="background-color:red;" d="M931.04 530.336c-3.552-5.088-87.968-125.6-204.512-208-60.416-42.784-136.608-66.336-214.528-66.336-77.856 0-154.08 23.552-214.624 66.336-116.512 82.4-200.864 202.912-204.416 208-10.144 14.624-10.144 34.048 0 48.672 3.552 5.088 87.904 125.6 204.416 208 60.544 42.752 136.736 66.304 214.624 66.304 77.92 0 154.112-23.552 214.528-66.336 116.512-82.4 200.96-202.912 204.512-208 10.208-14.592 10.208-34.048 0-48.64zM512 704c-82.528 0-149.344-66.976-149.344-149.344 0-82.528 66.816-149.344 149.344-149.344 82.336 0 149.344 66.816 149.344 149.344 0 82.336-66.976 149.344-149.344 149.344z" p-id="1394"></path><path fill="#c7c7c7" d="M597.344 554.656c0 47.008-38.304 85.344-85.344 85.344-47.136 0-85.344-38.304-85.344-85.344 0-47.136 38.176-85.344 85.344-85.344 47.008 0 85.344 38.176 85.344 85.344z" p-id="1395"></path></svg>